<mxfile host="app.diagrams.net" modified="2023-11-09T23:27:35.427Z" agent="Mozilla/5.0 (Macintosh; Intel Mac OS X 10_15_7) AppleWebKit/605.1.15 (KHTML, like Gecko) Version/17.0 Safari/605.1.15" etag="ndb8idfbiLL31wLCXwbW" version="22.1.0" type="google">
  <diagram name="Pagina-1" id="cKXPcSrGHzul6co3KXlj">
    <mxGraphModel grid="1" page="1" gridSize="10" guides="1" tooltips="1" connect="1" arrows="1" fold="1" pageScale="1" pageWidth="827" pageHeight="1169" math="0" shadow="0">
      <root>
        <mxCell id="0" />
        <mxCell id="1" parent="0" />
        <mxCell id="Xg-dwgr_L580lszzJwz6-7" style="edgeStyle=orthogonalEdgeStyle;rounded=0;orthogonalLoop=1;jettySize=auto;html=1;exitX=0;exitY=0.5;exitDx=0;exitDy=0;entryX=0.5;entryY=0;entryDx=0;entryDy=0;" edge="1" parent="1" source="Xg-dwgr_L580lszzJwz6-1" target="Xg-dwgr_L580lszzJwz6-3">
          <mxGeometry relative="1" as="geometry" />
        </mxCell>
        <mxCell id="Xg-dwgr_L580lszzJwz6-8" style="edgeStyle=orthogonalEdgeStyle;rounded=0;orthogonalLoop=1;jettySize=auto;html=1;exitX=1;exitY=0.5;exitDx=0;exitDy=0;entryX=0.5;entryY=0;entryDx=0;entryDy=0;" edge="1" parent="1" source="Xg-dwgr_L580lszzJwz6-1" target="Xg-dwgr_L580lszzJwz6-4">
          <mxGeometry relative="1" as="geometry" />
        </mxCell>
        <mxCell id="Xg-dwgr_L580lszzJwz6-1" value="Idle" style="rounded=1;whiteSpace=wrap;html=1;fillColor=#f8cecc;strokeColor=#b85450;" vertex="1" parent="1">
          <mxGeometry x="370" y="250" width="120" height="60" as="geometry" />
        </mxCell>
        <mxCell id="Xg-dwgr_L580lszzJwz6-11" style="edgeStyle=orthogonalEdgeStyle;rounded=0;orthogonalLoop=1;jettySize=auto;html=1;exitX=0.5;exitY=1;exitDx=0;exitDy=0;entryX=0;entryY=0.5;entryDx=0;entryDy=0;" edge="1" parent="1" source="Xg-dwgr_L580lszzJwz6-3" target="Xg-dwgr_L580lszzJwz6-6">
          <mxGeometry relative="1" as="geometry" />
        </mxCell>
        <mxCell id="Xg-dwgr_L580lszzJwz6-15" value="Yes" style="edgeLabel;html=1;align=center;verticalAlign=middle;resizable=0;points=[];" connectable="0" vertex="1" parent="Xg-dwgr_L580lszzJwz6-11">
          <mxGeometry x="-0.7488" y="-1" relative="1" as="geometry">
            <mxPoint as="offset" />
          </mxGeometry>
        </mxCell>
        <mxCell id="Xg-dwgr_L580lszzJwz6-13" style="edgeStyle=orthogonalEdgeStyle;rounded=0;orthogonalLoop=1;jettySize=auto;html=1;exitX=1;exitY=0.5;exitDx=0;exitDy=0;entryX=0.25;entryY=1;entryDx=0;entryDy=0;" edge="1" parent="1" source="Xg-dwgr_L580lszzJwz6-3" target="Xg-dwgr_L580lszzJwz6-1">
          <mxGeometry relative="1" as="geometry" />
        </mxCell>
        <mxCell id="Xg-dwgr_L580lszzJwz6-17" value="No" style="edgeLabel;html=1;align=center;verticalAlign=middle;resizable=0;points=[];" connectable="0" vertex="1" parent="Xg-dwgr_L580lszzJwz6-13">
          <mxGeometry x="-0.7923" relative="1" as="geometry">
            <mxPoint as="offset" />
          </mxGeometry>
        </mxCell>
        <mxCell id="Xg-dwgr_L580lszzJwz6-3" value="Does the player touch the character?" style="rhombus;whiteSpace=wrap;html=1;fillColor=#ffe6cc;strokeColor=#d79b00;" vertex="1" parent="1">
          <mxGeometry x="170" y="390" width="100" height="100" as="geometry" />
        </mxCell>
        <mxCell id="Xg-dwgr_L580lszzJwz6-12" style="edgeStyle=orthogonalEdgeStyle;rounded=0;orthogonalLoop=1;jettySize=auto;html=1;exitX=0.5;exitY=1;exitDx=0;exitDy=0;entryX=1;entryY=0.5;entryDx=0;entryDy=0;" edge="1" parent="1" source="Xg-dwgr_L580lszzJwz6-4" target="Xg-dwgr_L580lszzJwz6-6">
          <mxGeometry relative="1" as="geometry" />
        </mxCell>
        <mxCell id="Xg-dwgr_L580lszzJwz6-16" value="Yes" style="edgeLabel;html=1;align=center;verticalAlign=middle;resizable=0;points=[];" connectable="0" vertex="1" parent="Xg-dwgr_L580lszzJwz6-12">
          <mxGeometry x="-0.7545" relative="1" as="geometry">
            <mxPoint as="offset" />
          </mxGeometry>
        </mxCell>
        <mxCell id="Xg-dwgr_L580lszzJwz6-14" style="edgeStyle=orthogonalEdgeStyle;rounded=0;orthogonalLoop=1;jettySize=auto;html=1;exitX=0;exitY=0.5;exitDx=0;exitDy=0;entryX=0.75;entryY=1;entryDx=0;entryDy=0;" edge="1" parent="1" source="Xg-dwgr_L580lszzJwz6-4" target="Xg-dwgr_L580lszzJwz6-1">
          <mxGeometry relative="1" as="geometry" />
        </mxCell>
        <mxCell id="Xg-dwgr_L580lszzJwz6-18" value="No" style="edgeLabel;html=1;align=center;verticalAlign=middle;resizable=0;points=[];" connectable="0" vertex="1" parent="Xg-dwgr_L580lszzJwz6-14">
          <mxGeometry x="-0.7077" y="2" relative="1" as="geometry">
            <mxPoint x="3" y="-1" as="offset" />
          </mxGeometry>
        </mxCell>
        <mxCell id="Xg-dwgr_L580lszzJwz6-4" value="Does the player touch the goal item?" style="rhombus;whiteSpace=wrap;html=1;fillColor=#ffe6cc;strokeColor=#d79b00;" vertex="1" parent="1">
          <mxGeometry x="590" y="390" width="110" height="100" as="geometry" />
        </mxCell>
        <mxCell id="Xg-dwgr_L580lszzJwz6-6" value="The character moves from the left side of the screen to the right" style="rounded=1;whiteSpace=wrap;html=1;fillColor=#f8cecc;strokeColor=#b85450;" vertex="1" parent="1">
          <mxGeometry x="370" y="525" width="120" height="60" as="geometry" />
        </mxCell>
      </root>
    </mxGraphModel>
  </diagram>
</mxfile>
